{"title":"Apache.1954.BRRip.XviD.MP3-XVID","magnet":"magnet:?xt=urn:btih:b63f678c969370db9ded79395d01e8362cafd79e&dn=Apache.1954.BRRip.XviD.MP3-XVID&tr=udp%3A%2F%2Ftracker.leechers-paradise.org%3A6969&tr=udp%3A%2F%2Fzer0day.ch%3A1337&tr=udp%3A%2F%2Fopen.demonii.com%3A1337&tr=udp%3A%2F%2Ftracker.coppersurfer.tk%3A6969&tr=udp%3A%2F%2Fexodus.desync.com%3A6969","uploader":"deochar","categoryP":"video","categoryS":"movies","size":"1188458833","seeders":"0","leechers":"2","description":"Video\r\nID                                       : 0\r\nFormat                                   : MPEG-4 Visual\r\nFormat profile                           : Simple@L5\r\nFormat settings, BVOP                    : No\r\nFormat settings, QPel                    : No\r\nFormat settings, GMC                     : No warppoints\r\nFormat settings, Matrix                  : Default (H.263)\r\nCodec ID                                 : XVID\r\nCodec ID/Hint                            : XviD\r\nDuration                                 : 1 h 27 min\r\nBit rate                                 : 1 599 kb/s\r\nWidth                                    : 720 pixels\r\nHeight                                   : 422 pixels\r\nDisplay aspect ratio                     : 1.711\r\nOriginal display aspect ratio            : 1.713\r\nFrame rate                               : 23.976 (24000/1001) FPS\r\nColor space                              : YUV\r\nChroma subsampling                       : 4:2:0\r\nBit depth                                : 8 bits\r\nScan type                                : Progressive\r\nCompression mode                         : Lossy\r\nBits/(Pixel*Frame)                       : 0.220\r\nStream size                              : 1 000 MiB (88%)\r\nTitle                                    : RARBG - Apache.1954.BRRip.XviD.MP3-XVID\r\nWriting library                          : Lavc57.107.100\r\n\r\nAudio\r\nID                                       : 1\r\nFormat                                   : MPEG Audio\r\nFormat version                           : Version 1\r\nFormat profile                           : Layer 3\r\nFormat settings                          : Joint stereo / MS Stereo\r\nCodec ID                                 : 55\r\nCodec ID/Hint                            : MP3\r\nDuration                                 : 1 h 27 min\r\nBit rate mode                            : Constant\r\nBit rate                                 : 192 kb/s\r\nChannel(s)                               : 2 channels\r\nSampling rate                            : 48.0 kHz\r\nCompression mode                         : Lossy\r\nStream size                              : 120 MiB (11%)\r\nAlignment                                : Aligned on interleaves\r\nInterleave, duration                     : 24  ms (0.58 video frame)\r\nInterleave, preload duration             : 24  ms\r\nTitle                                    : RARBG - Apache.1954.BRRip.XviD.MP3-XVID","last_updated":"2018-05-27T12:02:09.139Z","parsed":{"xt":"urn:btih:b63f678c969370db9ded79395d01e8362cafd79e","dn":"Apache.1954.BRRip.XviD.MP3-XVID","tr":["udp://exodus.desync.com:6969","udp://open.demonii.com:1337","udp://tracker.coppersurfer.tk:6969","udp://tracker.leechers-paradise.org:6969","udp://zer0day.ch:1337"],"infoHash":"b63f678c969370db9ded79395d01e8362cafd79e","infoHashBuffer":{"type":"Buffer","data":[182,63,103,140,150,147,112,219,157,237,121,57,93,1,232,54,44,175,215,158]},"name":"Apache.1954.BRRip.XviD.MP3-XVID","announce":["udp://exodus.desync.com:6969","udp://open.demonii.com:1337","udp://tracker.coppersurfer.tk:6969","udp://tracker.leechers-paradise.org:6969","udp://zer0day.ch:1337"],"urlList":[]}}